<svg width="16" height="20" viewBox="0 0 16 20" fill="none" xmlns="http://www.w3.org/2000/svg">
<path d="M9.00001 12C5.64001 12 4.54001 13.35 4.18001 14.24C5.25001 14.7 6.00001 15.76 6.00001 17C6.00001 17.7956 5.68394 18.5587 5.12133 19.1213C4.55872 19.6839 3.79566 20 3.00001 20C2.20436 20 1.4413 19.6839 0.878692 19.1213C0.316083 18.5587 1.25144e-05 17.7956 1.25144e-05 17C1.25144e-05 15.69 0.830012 14.58 2.00001 14.17V5.83C1.41404 5.62439 0.906625 5.24142 0.548223 4.73429C0.189821 4.22715 -0.0017837 3.621 1.25144e-05 3C1.25144e-05 2.20435 0.316083 1.44129 0.878692 0.87868C1.4413 0.316071 2.20436 0 3.00001 0C3.79566 0 4.55872 0.316071 5.12133 0.87868C5.68394 1.44129 6.00001 2.20435 6.00001 3C6.00001 4.31 5.17001 5.42 4.00001 5.83V11.12C4.88001 10.47 6.16001 10 8.00001 10C10.67 10 11.56 8.66 11.85 7.77C11.3029 7.54208 10.8354 7.15753 10.5063 6.66468C10.1771 6.17182 10.001 5.59266 10 5C10 4.20435 10.3161 3.44129 10.8787 2.87868C11.4413 2.31607 12.2044 2 13 2C13.7957 2 14.5587 2.31607 15.1213 2.87868C15.6839 3.44129 16 4.20435 16 5C16 6.34 15.12 7.5 13.91 7.86C13.65 9.29 12.68 12 9.00001 12ZM3.00001 16C2.7348 16 2.48044 16.1054 2.29291 16.2929C2.10537 16.4804 2.00001 16.7348 2.00001 17C2.00001 17.2652 2.10537 17.5196 2.29291 17.7071C2.48044 17.8946 2.7348 18 3.00001 18C3.26523 18 3.51958 17.8946 3.70712 17.7071C3.89466 17.5196 4.00001 17.2652 4.00001 17C4.00001 16.7348 3.89466 16.4804 3.70712 16.2929C3.51958 16.1054 3.26523 16 3.00001 16ZM3.00001 2C2.7348 2 2.48044 2.10536 2.29291 2.29289C2.10537 2.48043 2.00001 2.73478 2.00001 3C2.00001 3.26522 2.10537 3.51957 2.29291 3.70711C2.48044 3.89464 2.7348 4 3.00001 4C3.26523 4 3.51958 3.89464 3.70712 3.70711C3.89466 3.51957 4.00001 3.26522 4.00001 3C4.00001 2.73478 3.89466 2.48043 3.70712 2.29289C3.51958 2.10536 3.26523 2 3.00001 2ZM13 4C12.7348 4 12.4804 4.10536 12.2929 4.29289C12.1054 4.48043 12 4.73478 12 5C12 5.26522 12.1054 5.51957 12.2929 5.70711C12.4804 5.89464 12.7348 6 13 6C13.2652 6 13.5196 5.89464 13.7071 5.70711C13.8947 5.51957 14 5.26522 14 5C14 4.73478 13.8947 4.48043 13.7071 4.29289C13.5196 4.10536 13.2652 4 13 4Z"/>
</svg>
